<svg width="100" height="100" viewBox="0 0 100 100" fill="none" xmlns="http://www.w3.org/2000/svg">
<g clip-path="url(#clip0_7941_59655)">
<rect width="100" height="100" fill="white"/>
<path d="M0.191406 0.191406H3.61356V3.61356H0.191406V0.191406ZM3.61356 0.191406H7.03571V3.61356H3.61356V0.191406ZM7.03571 0.191406H10.4579V3.61356H7.03571V0.191406ZM10.4579 0.191406H13.8801V3.61356H10.4579V0.191406ZM13.8801 0.191406H17.3022V3.61356H13.8801V0.191406ZM17.3022 0.191406H20.7243V3.61356H17.3022V0.191406ZM20.7243 0.191406H24.1465V3.61356H20.7243V0.191406ZM27.5686 0.191406H30.9908V3.61356H27.5686V0.191406ZM30.9908 0.191406H34.4129V3.61356H30.9908V0.191406ZM34.4129 0.191406H37.8351V3.61356H34.4129V0.191406ZM37.8351 0.191406H41.2572V3.61356H37.8351V0.191406ZM54.9458 0.191406H58.368V3.61356H54.9458V0.191406ZM58.368 0.191406H61.7901V3.61356H58.368V0.191406ZM61.7901 0.191406H65.2123V3.61356H61.7901V0.191406ZM65.2123 0.191406H68.6345V3.61356H65.2123V0.191406ZM68.6345 0.191406H72.0566V3.61356H68.6345V0.191406ZM75.4788 0.191406H78.9007V3.61356H75.4788V0.191406ZM78.9007 0.191406H82.3227V3.61356H78.9007V0.191406ZM82.3227 0.191406H85.7454V3.61356H82.3227V0.191406ZM85.7454 0.191406H89.1674V3.61356H85.7454V0.191406ZM89.1674 0.191406H92.5894V3.61356H89.1674V0.191406ZM92.5894 0.191406H96.0113V3.61356H92.5894V0.191406ZM96.0113 0.191406H99.4341V3.61356H96.0113V0.191406ZM0.191406 3.61356H3.61356V7.03571H0.191406V3.61356ZM20.7243 3.61356H24.1465V7.03571H20.7243V3.61356ZM27.5686 3.61356H30.9908V7.03571H27.5686V3.61356ZM34.4129 3.61356H37.8351V7.03571H34.4129V3.61356ZM37.8351 3.61356H41.2572V7.03571H37.8351V3.61356ZM44.6794 3.61356H48.1016V7.03571H44.6794V3.61356ZM48.1016 3.61356H51.5237V7.03571H48.1016V3.61356ZM58.368 3.61356H61.7901V7.03571H58.368V3.61356ZM68.6345 3.61356H72.0566V7.03571H68.6345V3.61356ZM75.4788 3.61356H78.9007V7.03571H75.4788V3.61356ZM96.0113 3.61356H99.4341V7.03571H96.0113V3.61356ZM0.191406 7.03571H3.61356V10.4579H0.191406V7.03571ZM7.03571 7.03571H10.4579V10.4579H7.03571V7.03571ZM10.4579 7.03571H13.8801V10.4579H10.4579V7.03571ZM13.8801 7.03571H17.3022V10.4579H13.8801V7.03571ZM20.7243 7.03571H24.1465V10.4579H20.7243V7.03571ZM34.4129 7.03571H37.8351V10.4579H34.4129V7.03571ZM41.2572 7.03571H44.6794V10.4579H41.2572V7.03571ZM44.6794 7.03571H48.1016V10.4579H44.6794V7.03571ZM51.5237 7.03571H54.9458V10.4579H51.5237V7.03571ZM54.9458 7.03571H58.368V10.4579H54.9458V7.03571ZM61.7901 7.03571H65.2123V10.4579H61.7901V7.03571ZM65.2123 7.03571H68.6345V10.4579H65.2123V7.03571ZM68.6345 7.03571H72.0566V10.4579H68.6345V7.03571ZM75.4788 7.03571H78.9007V10.4579H75.4788V7.03571ZM82.3227 7.03571H85.7454V10.4579H82.3227V7.03571ZM85.7454 7.03571H89.1674V10.4579H85.7454V7.03571ZM89.1674 7.03571H92.5894V10.4579H89.1674V7.03571ZM96.0113 7.03571H99.4341V10.4579H96.0113V7.03571ZM0.191406 10.4579H3.61356V13.88H0.191406V10.4579ZM7.03571 10.4579H10.4579V13.88H7.03571V10.4579ZM10.4579 10.4579H13.8801V13.88H10.4579V10.4579ZM13.8801 10.4579H17.3022V13.88H13.8801V10.4579ZM20.7243 10.4579H24.1465V13.88H20.7243V10.4579ZM27.5686 10.4579H30.9908V13.88H27.5686V10.4579ZM34.4129 10.4579H37.8351V13.88H34.4129V10.4579ZM41.2572 10.4579H44.6794V13.88H41.2572V10.4579ZM44.6794 10.4579H48.1016V13.88H44.6794V10.4579ZM48.1016 10.4579H51.5237V13.88H48.1016V10.4579ZM58.368 10.4579H61.7901V13.88H58.368V10.4579ZM65.2123 10.4579H68.6345V13.88H65.2123V10.4579ZM75.4788 10.4579H78.9007V13.88H75.4788V10.4579ZM82.3227 10.4579H85.7454V13.88H82.3227V10.4579ZM85.7454 10.4579H89.1674V13.88H85.7454V10.4579ZM89.1674 10.4579H92.5894V13.88H89.1674V10.4579ZM96.0113 10.4579H99.4341V13.88H96.0113V10.4579ZM0.191406 13.88H3.61356V17.3021H0.191406V13.88ZM7.03571 13.88H10.4579V17.3021H7.03571V13.88ZM10.4579 13.88H13.8801V17.3021H10.4579V13.88ZM13.8801 13.88H17.3022V17.3021H13.8801V13.88ZM20.7243 13.88H24.1465V17.3021H20.7243V13.88ZM30.9908 13.88H34.4129V17.3021H30.9908V13.88ZM34.4129 13.88H37.8351V17.3021H34.4129V13.88ZM41.2572 13.88H44.6794V17.3021H41.2572V13.88ZM48.1016 13.88H51.5237V17.3021H48.1016V13.88ZM51.5237 13.88H54.9458V17.3021H51.5237V13.88ZM54.9458 13.88H58.368V17.3021H54.9458V13.88ZM65.2123 13.88H68.6345V17.3021H65.2123V13.88ZM75.4788 13.88H78.9007V17.3021H75.4788V13.88ZM82.3227 13.88H85.7454V17.3021H82.3227V13.88ZM85.7454 13.88H89.1674V17.3021H85.7454V13.88ZM89.1674 13.88H92.5894V17.3021H89.1674V13.88ZM96.0113 13.88H99.4341V17.3021H96.0113V13.88ZM0.191406 17.3021H3.61356V20.7243H0.191406V17.3021ZM20.7243 17.3021H24.1465V20.7243H20.7243V17.3021ZM30.9908 17.3021H34.4129V20.7243H30.9908V17.3021ZM37.8351 17.3021H41.2572V20.7243H37.8351V17.3021ZM41.2572 17.3021H44.6794V20.7243H41.2572V17.3021ZM48.1016 17.3021H51.5237V20.7243H48.1016V17.3021ZM58.368 17.3021H61.7901V20.7243H58.368V17.3021ZM61.7901 17.3021H65.2123V20.7243H61.7901V17.3021ZM65.2123 17.3021H68.6345V20.7243H65.2123V17.3021ZM68.6345 17.3021H72.0566V20.7243H68.6345V17.3021ZM75.4788 17.3021H78.9007V20.7243H75.4788V17.3021ZM96.0113 17.3021H99.4341V20.7243H96.0113V17.3021ZM0.191406 20.7243H3.61356V24.1465H0.191406V20.7243ZM3.61356 20.7243H7.03571V24.1465H3.61356V20.7243ZM7.03571 20.7243H10.4579V24.1465H7.03571V20.7243ZM10.4579 20.7243H13.8801V24.1465H10.4579V20.7243ZM13.8801 20.7243H17.3022V24.1465H13.8801V20.7243ZM17.3022 20.7243H20.7243V24.1465H17.3022V20.7243ZM20.7243 20.7243H24.1465V24.1465H20.7243V20.7243ZM27.5686 20.7243H30.9908V24.1465H27.5686V20.7243ZM34.4129 20.7243H37.8351V24.1465H34.4129V20.7243ZM41.2572 20.7243H44.6794V24.1465H41.2572V20.7243ZM48.1016 20.7243H51.5237V24.1465H48.1016V20.7243ZM54.9458 20.7243H58.368V24.1465H54.9458V20.7243ZM61.7901 20.7243H65.2123V24.1465H61.7901V20.7243ZM68.6345 20.7243H72.0566V24.1465H68.6345V20.7243ZM75.4788 20.7243H78.9007V24.1465H75.4788V20.7243ZM78.9007 20.7243H82.3227V24.1465H78.9007V20.7243ZM82.3227 20.7243H85.7454V24.1465H82.3227V20.7243ZM85.7454 20.7243H89.1674V24.1465H85.7454V20.7243ZM89.1674 20.7243H92.5894V24.1465H89.1674V20.7243ZM92.5894 20.7243H96.0113V24.1465H92.5894V20.7243ZM96.0113 20.7243H99.4341V24.1465H96.0113V20.7243ZM27.5686 24.1465H30.9908V27.5687H27.5686V24.1465ZM34.4129 24.1465H37.8351V27.5687H34.4129V24.1465ZM37.8351 24.1465H41.2572V27.5687H37.8351V24.1465ZM48.1016 24.1465H51.5237V27.5687H48.1016V24.1465ZM58.368 24.1465H61.7901V27.5687H58.368V24.1465ZM0.191406 27.5687H3.61356V30.9908H0.191406V27.5687ZM7.03571 27.5687H10.4579V30.9908H7.03571V27.5687ZM10.4579 27.5687H13.8801V30.9908H10.4579V27.5687ZM17.3022 27.5687H20.7243V30.9908H17.3022V27.5687ZM20.7243 27.5687H24.1465V30.9908H20.7243V27.5687ZM24.1465 27.5687H27.5686V30.9908H24.1465V27.5687ZM34.4129 27.5687H37.8351V30.9908H34.4129V27.5687ZM48.1016 27.5687H51.5237V30.9908H48.1016V27.5687ZM58.368 27.5687H61.7901V30.9908H58.368V27.5687ZM61.7901 27.5687H65.2123V30.9908H61.7901V27.5687ZM65.2123 27.5687H68.6345V30.9908H65.2123V27.5687ZM75.4788 27.5687H78.9007V30.9908H75.4788V27.5687ZM85.7454 27.5687H89.1674V30.9908H85.7454V27.5687ZM92.5894 27.5687H96.0113V30.9908H92.5894V27.5687ZM96.0113 27.5687H99.4341V30.9908H96.0113V27.5687ZM10.4579 30.9908H13.8801V34.4129H10.4579V30.9908ZM30.9908 30.9908H34.4129V34.4129H30.9908V30.9908ZM37.8351 30.9908H41.2572V34.4129H37.8351V30.9908ZM41.2572 30.9908H44.6794V34.4129H41.2572V30.9908ZM54.9458 30.9908H58.368V34.4129H54.9458V30.9908ZM58.368 30.9908H61.7901V34.4129H58.368V30.9908ZM61.7901 30.9908H65.2123V34.4129H61.7901V30.9908ZM65.2123 30.9908H68.6345V34.4129H65.2123V30.9908ZM68.6345 30.9908H72.0566V34.4129H68.6345V30.9908ZM75.4788 30.9908H78.9007V34.4129H75.4788V30.9908ZM78.9007 30.9908H82.3227V34.4129H78.9007V30.9908ZM82.3227 30.9908H85.7454V34.4129H82.3227V30.9908ZM96.0113 30.9908H99.4341V34.4129H96.0113V30.9908ZM0.191406 34.4129H3.61356V37.8351H0.191406V34.4129ZM7.03571 34.4129H10.4579V37.8351H7.03571V34.4129ZM10.4579 34.4129H13.8801V37.8351H10.4579V34.4129ZM13.8801 34.4129H17.3022V37.8351H13.8801V34.4129ZM17.3022 34.4129H20.7243V37.8351H17.3022V34.4129ZM20.7243 34.4129H24.1465V37.8351H20.7243V34.4129ZM24.1465 34.4129H27.5686V37.8351H24.1465V34.4129ZM27.5686 34.4129H30.9908V37.8351H27.5686V34.4129ZM30.9908 34.4129H34.4129V37.8351H30.9908V34.4129ZM37.8351 34.4129H41.2572V37.8351H37.8351V34.4129ZM41.2572 34.4129H44.6794V37.8351H41.2572V34.4129ZM54.9458 34.4129H58.368V37.8351H54.9458V34.4129ZM68.6345 34.4129H72.0566V37.8351H68.6345V34.4129ZM82.3227 34.4129H85.7454V37.8351H82.3227V34.4129ZM89.1674 34.4129H92.5894V37.8351H89.1674V34.4129ZM92.5894 34.4129H96.0113V37.8351H92.5894V34.4129ZM7.03571 37.8351H10.4579V41.2572H7.03571V37.8351ZM17.3022 37.8351H20.7243V41.2572H17.3022V37.8351ZM24.1465 37.8351H27.5686V41.2572H24.1465V37.8351ZM30.9908 37.8351H34.4129V41.2572H30.9908V37.8351ZM41.2572 37.8351H44.6794V41.2572H41.2572V37.8351ZM44.6794 37.8351H48.1016V41.2572H44.6794V37.8351ZM51.5237 37.8351H54.9458V41.2572H51.5237V37.8351ZM61.7901 37.8351H65.2123V41.2572H61.7901V37.8351ZM68.6345 37.8351H72.0566V41.2572H68.6345V37.8351ZM72.0566 37.8351H75.4788V41.2572H72.0566V37.8351ZM82.3227 37.8351H85.7454V41.2572H82.3227V37.8351ZM96.0113 37.8351H99.4341V41.2572H96.0113V37.8351ZM13.8801 41.2572H17.3022V44.6794H13.8801V41.2572ZM20.7243 41.2572H24.1465V44.6794H20.7243V41.2572ZM34.4129 41.2572H37.8351V44.6794H34.4129V41.2572ZM44.6794 41.2572H48.1016V44.6794H44.6794V41.2572ZM48.1016 41.2572H51.5237V44.6794H48.1016V41.2572ZM58.368 41.2572H61.7901V44.6794H58.368V41.2572ZM61.7901 41.2572H65.2123V44.6794H61.7901V41.2572ZM65.2123 41.2572H68.6345V44.6794H65.2123V41.2572ZM85.7454 41.2572H89.1674V44.6794H85.7454V41.2572ZM89.1674 41.2572H92.5894V44.6794H89.1674V41.2572ZM0.191406 44.6794H3.61356V48.1015H0.191406V44.6794ZM10.4579 44.6794H13.8801V48.1015H10.4579V44.6794ZM13.8801 44.6794H17.3022V48.1015H13.8801V44.6794ZM27.5686 44.6794H30.9908V48.1015H27.5686V44.6794ZM30.9908 44.6794H34.4129V48.1015H30.9908V44.6794ZM34.4129 44.6794H37.8351V48.1015H34.4129V44.6794ZM37.8351 44.6794H41.2572V48.1015H37.8351V44.6794ZM41.2572 44.6794H44.6794V48.1015H41.2572V44.6794ZM44.6794 44.6794H48.1016V48.1015H44.6794V44.6794ZM48.1016 44.6794H51.5237V48.1015H48.1016V44.6794ZM51.5237 44.6794H54.9458V48.1015H51.5237V44.6794ZM65.2123 44.6794H68.6345V48.1015H65.2123V44.6794ZM75.4788 44.6794H78.9007V48.1015H75.4788V44.6794ZM89.1674 44.6794H92.5894V48.1015H89.1674V44.6794ZM92.5894 44.6794H96.0113V48.1015H92.5894V44.6794ZM96.0113 44.6794H99.4341V48.1015H96.0113V44.6794ZM0.191406 48.1015H3.61356V51.5237H0.191406V48.1015ZM3.61356 48.1015H7.03571V51.5237H3.61356V48.1015ZM10.4579 48.1015H13.8801V51.5237H10.4579V48.1015ZM17.3022 48.1015H20.7243V51.5237H17.3022V48.1015ZM20.7243 48.1015H24.1465V51.5237H20.7243V48.1015ZM24.1465 48.1015H27.5686V51.5237H24.1465V48.1015ZM27.5686 48.1015H30.9908V51.5237H27.5686V48.1015ZM37.8351 48.1015H41.2572V51.5237H37.8351V48.1015ZM41.2572 48.1015H44.6794V51.5237H41.2572V48.1015ZM44.6794 48.1015H48.1016V51.5237H44.6794V48.1015ZM48.1016 48.1015H51.5237V51.5237H48.1016V48.1015ZM54.9458 48.1015H58.368V51.5237H54.9458V48.1015ZM58.368 48.1015H61.7901V51.5237H58.368V48.1015ZM61.7901 48.1015H65.2123V51.5237H61.7901V48.1015ZM65.2123 48.1015H68.6345V51.5237H65.2123V48.1015ZM68.6345 48.1015H72.0566V51.5237H68.6345V48.1015ZM75.4788 48.1015H78.9007V51.5237H75.4788V48.1015ZM78.9007 48.1015H82.3227V51.5237H78.9007V48.1015ZM82.3227 48.1015H85.7454V51.5237H82.3227V48.1015ZM89.1674 48.1015H92.5894V51.5237H89.1674V48.1015ZM92.5894 48.1015H96.0113V51.5237H92.5894V48.1015ZM96.0113 48.1015H99.4341V51.5237H96.0113V48.1015ZM0.191406 51.5237H3.61356V54.9459H0.191406V51.5237ZM7.03571 51.5237H10.4579V54.9459H7.03571V51.5237ZM13.8801 51.5237H17.3022V54.9459H13.8801V51.5237ZM30.9908 51.5237H34.4129V54.9459H30.9908V51.5237ZM34.4129 51.5237H37.8351V54.9459H34.4129V51.5237ZM37.8351 51.5237H41.2572V54.9459H37.8351V51.5237ZM48.1016 51.5237H51.5237V54.9459H48.1016V51.5237ZM54.9458 51.5237H58.368V54.9459H54.9458V51.5237ZM61.7901 51.5237H65.2123V54.9459H61.7901V51.5237ZM65.2123 51.5237H68.6345V54.9459H65.2123V51.5237ZM68.6345 51.5237H72.0566V54.9459H68.6345V51.5237ZM75.4788 51.5237H78.9007V54.9459H75.4788V51.5237ZM82.3227 51.5237H85.7454V54.9459H82.3227V51.5237ZM92.5894 51.5237H96.0113V54.9459H92.5894V51.5237ZM0.191406 54.9459H3.61356V58.368H0.191406V54.9459ZM10.4579 54.9459H13.8801V58.368H10.4579V54.9459ZM17.3022 54.9459H20.7243V58.368H17.3022V54.9459ZM20.7243 54.9459H24.1465V58.368H20.7243V54.9459ZM34.4129 54.9459H37.8351V58.368H34.4129V54.9459ZM41.2572 54.9459H44.6794V58.368H41.2572V54.9459ZM44.6794 54.9459H48.1016V58.368H44.6794V54.9459ZM48.1016 54.9459H51.5237V58.368H48.1016V54.9459ZM54.9458 54.9459H58.368V58.368H54.9458V54.9459ZM61.7901 54.9459H65.2123V58.368H61.7901V54.9459ZM65.2123 54.9459H68.6345V58.368H65.2123V54.9459ZM68.6345 54.9459H72.0566V58.368H68.6345V54.9459ZM72.0566 54.9459H75.4788V58.368H72.0566V54.9459ZM78.9007 54.9459H82.3227V58.368H78.9007V54.9459ZM82.3227 54.9459H85.7454V58.368H82.3227V54.9459ZM85.7454 54.9459H89.1674V58.368H85.7454V54.9459ZM92.5894 54.9459H96.0113V58.368H92.5894V54.9459ZM10.4579 58.368H13.8801V61.7902H10.4579V58.368ZM17.3022 58.368H20.7243V61.7902H17.3022V58.368ZM27.5686 58.368H30.9908V61.7902H27.5686V58.368ZM30.9908 58.368H34.4129V61.7902H30.9908V58.368ZM44.6794 58.368H48.1016V61.7902H44.6794V58.368ZM48.1016 58.368H51.5237V61.7902H48.1016V58.368ZM51.5237 58.368H54.9458V61.7902H51.5237V58.368ZM58.368 58.368H61.7901V61.7902H58.368V58.368ZM68.6345 58.368H72.0566V61.7902H68.6345V58.368ZM72.0566 58.368H75.4788V61.7902H72.0566V58.368ZM78.9007 58.368H82.3227V61.7902H78.9007V58.368ZM85.7454 58.368H89.1674V61.7902H85.7454V58.368ZM89.1674 58.368H92.5894V61.7902H89.1674V58.368ZM92.5894 58.368H96.0113V61.7902H92.5894V58.368ZM0.191406 61.7902H3.61356V65.2123H0.191406V61.7902ZM7.03571 61.7902H10.4579V65.2123H7.03571V61.7902ZM13.8801 61.7902H17.3022V65.2123H13.8801V61.7902ZM20.7243 61.7902H24.1465V65.2123H20.7243V61.7902ZM24.1465 61.7902H27.5686V65.2123H24.1465V61.7902ZM30.9908 61.7902H34.4129V65.2123H30.9908V61.7902ZM34.4129 61.7902H37.8351V65.2123H34.4129V61.7902ZM37.8351 61.7902H41.2572V65.2123H37.8351V61.7902ZM44.6794 61.7902H48.1016V65.2123H44.6794V61.7902ZM48.1016 61.7902H51.5237V65.2123H48.1016V61.7902ZM51.5237 61.7902H54.9458V65.2123H51.5237V61.7902ZM54.9458 61.7902H58.368V65.2123H54.9458V61.7902ZM72.0566 61.7902H75.4788V65.2123H72.0566V61.7902ZM78.9007 61.7902H82.3227V65.2123H78.9007V61.7902ZM82.3227 61.7902H85.7454V65.2123H82.3227V61.7902ZM89.1674 61.7902H92.5894V65.2123H89.1674V61.7902ZM7.03571 65.2123H10.4579V68.6345H7.03571V65.2123ZM10.4579 65.2123H13.8801V68.6345H10.4579V65.2123ZM13.8801 65.2123H17.3022V68.6345H13.8801V65.2123ZM24.1465 65.2123H27.5686V68.6345H24.1465V65.2123ZM58.368 65.2123H61.7901V68.6345H58.368V65.2123ZM61.7901 65.2123H65.2123V68.6345H61.7901V65.2123ZM65.2123 65.2123H68.6345V68.6345H65.2123V65.2123ZM75.4788 65.2123H78.9007V68.6345H75.4788V65.2123ZM78.9007 65.2123H82.3227V68.6345H78.9007V65.2123ZM82.3227 65.2123H85.7454V68.6345H82.3227V65.2123ZM89.1674 65.2123H92.5894V68.6345H89.1674V65.2123ZM3.61356 68.6345H7.03571V72.0566H3.61356V68.6345ZM7.03571 68.6345H10.4579V72.0566H7.03571V68.6345ZM17.3022 68.6345H20.7243V72.0566H17.3022V68.6345ZM20.7243 68.6345H24.1465V72.0566H20.7243V68.6345ZM24.1465 68.6345H27.5686V72.0566H24.1465V68.6345ZM34.4129 68.6345H37.8351V72.0566H34.4129V68.6345ZM37.8351 68.6345H41.2572V72.0566H37.8351V68.6345ZM48.1016 68.6345H51.5237V72.0566H48.1016V68.6345ZM54.9458 68.6345H58.368V72.0566H54.9458V68.6345ZM58.368 68.6345H61.7901V72.0566H58.368V68.6345ZM61.7901 68.6345H65.2123V72.0566H61.7901V68.6345ZM68.6345 68.6345H72.0566V72.0566H68.6345V68.6345ZM72.0566 68.6345H75.4788V72.0566H72.0566V68.6345ZM75.4788 68.6345H78.9007V72.0566H75.4788V68.6345ZM78.9007 68.6345H82.3227V72.0566H78.9007V68.6345ZM82.3227 68.6345H85.7454V72.0566H82.3227V68.6345ZM85.7454 68.6345H89.1674V72.0566H85.7454V68.6345ZM89.1674 68.6345H92.5894V72.0566H89.1674V68.6345ZM27.5686 72.0566H30.9908V75.4787H27.5686V72.0566ZM30.9908 72.0566H34.4129V75.4787H30.9908V72.0566ZM34.4129 72.0566H37.8351V75.4787H34.4129V72.0566ZM44.6794 72.0566H48.1016V75.4787H44.6794V72.0566ZM48.1016 72.0566H51.5237V75.4787H48.1016V72.0566ZM51.5237 72.0566H54.9458V75.4787H51.5237V72.0566ZM54.9458 72.0566H58.368V75.4787H54.9458V72.0566ZM61.7901 72.0566H65.2123V75.4787H61.7901V72.0566ZM68.6345 72.0566H72.0566V75.4787H68.6345V72.0566ZM82.3227 72.0566H85.7454V75.4787H82.3227V72.0566ZM85.7454 72.0566H89.1674V75.4787H85.7454V72.0566ZM89.1674 72.0566H92.5894V75.4787H89.1674V72.0566ZM92.5894 72.0566H96.0113V75.4787H92.5894V72.0566ZM96.0113 72.0566H99.4341V75.4787H96.0113V72.0566ZM0.191406 75.4787H3.61356V78.9006H0.191406V75.4787ZM3.61356 75.4787H7.03571V78.9006H3.61356V75.4787ZM7.03571 75.4787H10.4579V78.9006H7.03571V75.4787ZM10.4579 75.4787H13.8801V78.9006H10.4579V75.4787ZM13.8801 75.4787H17.3022V78.9006H13.8801V75.4787ZM17.3022 75.4787H20.7243V78.9006H17.3022V75.4787ZM20.7243 75.4787H24.1465V78.9006H20.7243V75.4787ZM27.5686 75.4787H30.9908V78.9006H27.5686V75.4787ZM30.9908 75.4787H34.4129V78.9006H30.9908V75.4787ZM41.2572 75.4787H44.6794V78.9006H41.2572V75.4787ZM48.1016 75.4787H51.5237V78.9006H48.1016V75.4787ZM54.9458 75.4787H58.368V78.9006H54.9458V75.4787ZM58.368 75.4787H61.7901V78.9006H58.368V75.4787ZM61.7901 75.4787H65.2123V78.9006H61.7901V75.4787ZM65.2123 75.4787H68.6345V78.9006H65.2123V75.4787ZM68.6345 75.4787H72.0566V78.9006H68.6345V75.4787ZM75.4788 75.4787H78.9007V78.9006H75.4788V75.4787ZM82.3227 75.4787H85.7454V78.9006H82.3227V75.4787ZM85.7454 75.4787H89.1674V78.9006H85.7454V75.4787ZM92.5894 75.4787H96.0113V78.9006H92.5894V75.4787ZM0.191406 78.9006H3.61356V82.3233H0.191406V78.9006ZM20.7243 78.9006H24.1465V82.3233H20.7243V78.9006ZM27.5686 78.9006H30.9908V82.3233H27.5686V78.9006ZM34.4129 78.9006H37.8351V82.3233H34.4129V78.9006ZM44.6794 78.9006H48.1016V82.3233H44.6794V78.9006ZM51.5237 78.9006H54.9458V82.3233H51.5237V78.9006ZM54.9458 78.9006H58.368V82.3233H54.9458V78.9006ZM61.7901 78.9006H65.2123V82.3233H61.7901V78.9006ZM65.2123 78.9006H68.6345V82.3233H65.2123V78.9006ZM68.6345 78.9006H72.0566V82.3233H68.6345V78.9006ZM82.3227 78.9006H85.7454V82.3233H82.3227V78.9006ZM85.7454 78.9006H89.1674V82.3233H85.7454V78.9006ZM0.191406 82.3233H3.61356V85.7453H0.191406V82.3233ZM7.03571 82.3233H10.4579V85.7453H7.03571V82.3233ZM10.4579 82.3233H13.8801V85.7453H10.4579V82.3233ZM13.8801 82.3233H17.3022V85.7453H13.8801V82.3233ZM20.7243 82.3233H24.1465V85.7453H20.7243V82.3233ZM30.9908 82.3233H34.4129V85.7453H30.9908V82.3233ZM37.8351 82.3233H41.2572V85.7453H37.8351V82.3233ZM41.2572 82.3233H44.6794V85.7453H41.2572V82.3233ZM58.368 82.3233H61.7901V85.7453H58.368V82.3233ZM61.7901 82.3233H65.2123V85.7453H61.7901V82.3233ZM68.6345 82.3233H72.0566V85.7453H68.6345V82.3233ZM72.0566 82.3233H75.4788V85.7453H72.0566V82.3233ZM75.4788 82.3233H78.9007V85.7453H75.4788V82.3233ZM78.9007 82.3233H82.3227V85.7453H78.9007V82.3233ZM82.3227 82.3233H85.7454V85.7453H82.3227V82.3233ZM89.1674 82.3233H92.5894V85.7453H89.1674V82.3233ZM92.5894 82.3233H96.0113V85.7453H92.5894V82.3233ZM96.0113 82.3233H99.4341V85.7453H96.0113V82.3233ZM0.191406 85.7453H3.61356V89.1672H0.191406V85.7453ZM7.03571 85.7453H10.4579V89.1672H7.03571V85.7453ZM10.4579 85.7453H13.8801V89.1672H10.4579V85.7453ZM13.8801 85.7453H17.3022V89.1672H13.8801V85.7453ZM20.7243 85.7453H24.1465V89.1672H20.7243V85.7453ZM27.5686 85.7453H30.9908V89.1672H27.5686V85.7453ZM48.1016 85.7453H51.5237V89.1672H48.1016V85.7453ZM51.5237 85.7453H54.9458V89.1672H51.5237V85.7453ZM54.9458 85.7453H58.368V89.1672H54.9458V85.7453ZM65.2123 85.7453H68.6345V89.1672H65.2123V85.7453ZM72.0566 85.7453H75.4788V89.1672H72.0566V85.7453ZM78.9007 85.7453H82.3227V89.1672H78.9007V85.7453ZM82.3227 85.7453H85.7454V89.1672H82.3227V85.7453ZM85.7454 85.7453H89.1674V89.1672H85.7454V85.7453ZM96.0113 85.7453H99.4341V89.1672H96.0113V85.7453ZM0.191406 89.1672H3.61356V92.5892H0.191406V89.1672ZM7.03571 89.1672H10.4579V92.5892H7.03571V89.1672ZM10.4579 89.1672H13.8801V92.5892H10.4579V89.1672ZM13.8801 89.1672H17.3022V92.5892H13.8801V89.1672ZM20.7243 89.1672H24.1465V92.5892H20.7243V89.1672ZM27.5686 89.1672H30.9908V92.5892H27.5686V89.1672ZM48.1016 89.1672H51.5237V92.5892H48.1016V89.1672ZM58.368 89.1672H61.7901V92.5892H58.368V89.1672ZM61.7901 89.1672H65.2123V92.5892H61.7901V89.1672ZM78.9007 89.1672H82.3227V92.5892H78.9007V89.1672ZM89.1674 89.1672H92.5894V92.5892H89.1674V89.1672ZM96.0113 89.1672H99.4341V92.5892H96.0113V89.1672ZM0.191406 92.5892H3.61356V96.0119H0.191406V92.5892ZM20.7243 92.5892H24.1465V96.0119H20.7243V92.5892ZM30.9908 92.5892H34.4129V96.0119H30.9908V92.5892ZM34.4129 92.5892H37.8351V96.0119H34.4129V92.5892ZM41.2572 92.5892H44.6794V96.0119H41.2572V92.5892ZM44.6794 92.5892H48.1016V96.0119H44.6794V92.5892ZM48.1016 92.5892H51.5237V96.0119H48.1016V92.5892ZM51.5237 92.5892H54.9458V96.0119H51.5237V92.5892ZM65.2123 92.5892H68.6345V96.0119H65.2123V92.5892ZM68.6345 92.5892H72.0566V96.0119H68.6345V92.5892ZM78.9007 92.5892H82.3227V96.0119H78.9007V92.5892ZM85.7454 92.5892H89.1674V96.0119H85.7454V92.5892ZM92.5894 92.5892H96.0113V96.0119H92.5894V92.5892ZM0.191406 96.0119H3.61356V99.4339H0.191406V96.0119ZM3.61356 96.0119H7.03571V99.4339H3.61356V96.0119ZM7.03571 96.0119H10.4579V99.4339H7.03571V96.0119ZM10.4579 96.0119H13.8801V99.4339H10.4579V96.0119ZM13.8801 96.0119H17.3022V99.4339H13.8801V96.0119ZM17.3022 96.0119H20.7243V99.4339H17.3022V96.0119ZM20.7243 96.0119H24.1465V99.4339H20.7243V96.0119ZM27.5686 96.0119H30.9908V99.4339H27.5686V96.0119ZM30.9908 96.0119H34.4129V99.4339H30.9908V96.0119ZM37.8351 96.0119H41.2572V99.4339H37.8351V96.0119ZM41.2572 96.0119H44.6794V99.4339H41.2572V96.0119ZM44.6794 96.0119H48.1016V99.4339H44.6794V96.0119ZM51.5237 96.0119H54.9458V99.4339H51.5237V96.0119ZM61.7901 96.0119H65.2123V99.4339H61.7901V96.0119ZM65.2123 96.0119H68.6345V99.4339H65.2123V96.0119ZM68.6345 96.0119H72.0566V99.4339H68.6345V96.0119ZM72.0566 96.0119H75.4788V99.4339H72.0566V96.0119ZM78.9007 96.0119H82.3227V99.4339H78.9007V96.0119ZM82.3227 96.0119H85.7454V99.4339H82.3227V96.0119ZM92.5894 96.0119H96.0113V99.4339H92.5894V96.0119Z" fill="black"/>
</g>
<rect x="0.5" y="0.5" width="99" height="99" stroke="white"/>
<defs>
<clipPath id="clip0_7941_59655">
<rect width="100" height="100" fill="white"/>
</clipPath>
</defs>
</svg>
