<?xml version="1.0" encoding="utf-8"?>
<svg xmlns="http://www.w3.org/2000/svg" width="18" height="18" viewBox="0 0 18 18" fill="none">
<g clip-path="url(#clip0_8349_4587)">
<path d="M6.108 7.952C6.444 7.952 6.687 7.889 6.837 7.763C6.993 7.631 7.071 7.469 7.071 7.277V7.214C7.071 6.986 6.996 6.803 6.846 6.665C6.702 6.527 6.495 6.458 6.225 6.458C5.973 6.458 5.736 6.524 5.514 6.656C5.292 6.782 5.103 6.965 4.947 7.205L4.101 6.413C4.221 6.257 4.35 6.116 4.488 5.99C4.626 5.858 4.782 5.747 4.956 5.657C5.13 5.561 5.325 5.489 5.541 5.441C5.757 5.387 6 5.36 6.27 5.36C6.606 5.36 6.909 5.399 7.179 5.477C7.455 5.555 7.689 5.669 7.881 5.819C8.079 5.963 8.229 6.137 8.331 6.341C8.439 6.545 8.493 6.773 8.493 7.025C8.493 7.223 8.46 7.403 8.394 7.565C8.334 7.727 8.247 7.868 8.133 7.988C8.025 8.108 7.899 8.207 7.755 8.285C7.611 8.357 7.458 8.408 7.296 8.438V8.492C7.482 8.528 7.653 8.588 7.809 8.672C7.971 8.75 8.109 8.852 8.223 8.978C8.343 9.104 8.436 9.254 8.502 9.428C8.568 9.596 8.601 9.788 8.601 10.004C8.601 10.286 8.544 10.541 8.43 10.769C8.316 10.997 8.154 11.192 7.944 11.354C7.734 11.516 7.482 11.642 7.188 11.732C6.894 11.816 6.57 11.858 6.216 11.858C5.898 11.858 5.616 11.825 5.37 11.759C5.124 11.693 4.908 11.606 4.722 11.498C4.542 11.384 4.383 11.255 4.245 11.111C4.113 10.967 3.996 10.814 3.894 10.652L4.893 9.878C5.031 10.136 5.199 10.349 5.397 10.517C5.601 10.679 5.874 10.76 6.216 10.76C6.522 10.76 6.759 10.685 6.927 10.535C7.101 10.379 7.188 10.169 7.188 9.905V9.851C7.188 9.593 7.089 9.401 6.891 9.275C6.699 9.143 6.432 9.077 6.09 9.077H5.523V7.952H6.108ZM11.3065 11.858C10.4845 11.858 9.87548 11.573 9.47948 11.003C9.08348 10.433 8.88548 9.635 8.88548 8.609C8.88548 7.583 9.08348 6.785 9.47948 6.215C9.87548 5.645 10.4845 5.36 11.3065 5.36C12.1285 5.36 12.7375 5.645 13.1335 6.215C13.5295 6.785 13.7275 7.583 13.7275 8.609C13.7275 9.635 13.5295 10.433 13.1335 11.003C12.7375 11.573 12.1285 11.858 11.3065 11.858ZM11.3065 10.715C11.6665 10.715 11.9155 10.583 12.0535 10.319C12.1915 10.055 12.2605 9.683 12.2605 9.203V8.015C12.2605 7.535 12.1915 7.163 12.0535 6.899C11.9155 6.635 11.6665 6.503 11.3065 6.503C10.9465 6.503 10.6975 6.635 10.5595 6.899C10.4215 7.163 10.3525 7.535 10.3525 8.015V9.203C10.3525 9.683 10.4215 10.055 10.5595 10.319C10.6975 10.583 10.9465 10.715 11.3065 10.715Z" fill="#33B193"/>
<path d="M16.1248 9C16.1248 5.06497 12.9268 1.875 8.9819 1.875C5.03701 1.875 1.83904 5.06497 1.83904 9C1.83904 12.935 5.03701 16.125 8.9819 16.125C11.9109 16.125 14.4282 14.3664 15.5304 11.85L16.839 13.275" stroke="black" stroke-width="1.5"/>
</g>
<defs>
<clipPath id="clip0_8349_4587">
<rect width="18" height="18" fill="white"/>
</clipPath>
</defs>
</svg>