<?xml version="1.0" encoding="utf-8"?>
<svg xmlns="http://www.w3.org/2000/svg" width="18" height="18" viewBox="0 0 18 18" fill="none">
<g clip-path="url(#clip0_8349_4602)">
<path d="M8.67075 12.5H4.59525V11.3698L6.369 9.85175C6.5285 9.71425 6.66325 9.5905 6.77325 9.4805C6.88325 9.365 6.97125 9.255 7.03725 9.1505C7.10875 9.0405 7.15825 8.93325 7.18575 8.82875C7.21875 8.72425 7.23525 8.6115 7.23525 8.4905V8.375C7.23525 8.265 7.21325 8.16875 7.16925 8.08625C7.12525 8.00375 7.0675 7.935 6.996 7.88C6.9245 7.825 6.842 7.78375 6.7485 7.75625C6.6605 7.72875 6.56975 7.715 6.47625 7.715C6.33875 7.715 6.21775 7.737 6.11325 7.781C6.01425 7.825 5.92625 7.8855 5.84925 7.9625C5.77775 8.034 5.71725 8.11925 5.66775 8.21825C5.61825 8.31175 5.57975 8.4135 5.55225 8.5235L4.4715 8.111C4.5375 7.913 4.62825 7.726 4.74375 7.55C4.85925 7.3685 5.00225 7.21175 5.17275 7.07975C5.34875 6.94225 5.555 6.835 5.7915 6.758C6.028 6.681 6.29475 6.6425 6.59175 6.6425C6.90525 6.6425 7.183 6.6865 7.425 6.7745C7.667 6.8625 7.8705 6.9835 8.0355 7.1375C8.206 7.2915 8.33525 7.47575 8.42325 7.69025C8.51125 7.89925 8.55525 8.1275 8.55525 8.375C8.55525 8.6225 8.514 8.848 8.4315 9.0515C8.349 9.255 8.23625 9.4475 8.09325 9.629C7.95575 9.805 7.7935 9.97275 7.6065 10.1323C7.4195 10.2918 7.22425 10.454 7.02075 10.619L5.94825 11.4605H8.67075V12.5ZM11.522 12.5V11.3945H8.98928V10.3385L11.2333 6.7415H12.7018V10.4375H13.4278V11.3945H12.7018V12.5H11.522ZM9.97928 10.4375H11.522V8.02025H11.4395L9.97928 10.4375Z" fill="#009D78"/>
<rect x="0.75" y="11.25" width="2.25" height="5.25" fill="black"/>
<path d="M15 11.25H17.25V16.5H15V11.25Z" fill="black"/>
<path d="M2.25 16.5L2.25 8.625C2.25 4.89708 5.27208 1.875 9 1.875V1.875C12.7279 1.875 15.75 4.89708 15.75 8.625V15.75H11.2969V14.25" stroke="black" stroke-width="1.5"/>
</g>
<defs>
<clipPath id="clip0_8349_4602">
<rect width="18" height="18" fill="white"/>
</clipPath>
</defs>
</svg>