<svg width="206" height="20" viewBox="0 0 206 20" fill="none" xmlns="http://www.w3.org/2000/svg">
<g clip-path="url(#clip0_1030_290)">
<path d="M58.7577 19.6617L48.8748 0.337524H55.6159L62.6131 14.5447L69.176 0.337524H75.3554L66.1626 19.6617H58.757H58.7577Z" fill="#0A0A0A"/>
<path d="M96.6271 0.337524V4.72668H82.4803V7.58382H96.2948V11.9994H82.4803V15.1684H96.8823V19.6617H76.6067V0.337524H96.6271Z" fill="#0A0A0A"/>
<path d="M105.411 0.337524V14.8566H118.613V19.6617H99.4607V0.337524H105.411Z" fill="#0A0A0A"/>
<path d="M119.812 13.0904V12.805H126.017C126.094 13.9481 126.758 15.8698 131.661 15.8698H132.018C137.023 15.8698 137.585 14.8565 137.585 13.8175C137.585 12.7008 136.997 11.9737 132.605 11.8695L129.337 11.7917C122.238 11.5841 120.067 9.1422 120.067 6.12951V5.89544C120.067 3.01263 121.778 -0.000812531 130.41 -0.000812531H132.172C141.161 -0.000812531 143.203 3.19384 143.203 6.10308V6.36282H137.024C136.922 5.60927 136.488 4.05083 131.534 4.05083H131.125C126.529 4.05083 126.197 4.90783 126.197 5.71347C126.197 6.51912 126.683 7.32401 130.589 7.37611L133.781 7.42821C140.931 7.58375 143.816 9.32416 143.816 13.1682V13.5321C143.816 16.7268 142.233 19.9992 132.683 19.9992H130.921C120.961 19.9992 119.812 15.6357 119.812 13.0904Z" fill="#0A0A0A"/>
<path d="M145.935 0.337524H151.885V7.37618H164.653V0.337524H170.603V19.6617H164.653V12.0515H151.885V19.6617H145.935V0.337524Z" fill="#0A0A0A"/>
<path d="M179.407 19.6617H173.457V0.337524H179.407V19.6617Z" fill="#0A0A0A"/>
<path d="M188.174 13.2203V19.6617H182.224V0.337524H196.473C203.291 0.337524 205.334 3.09047 205.334 6.62339V6.88313C205.334 10.3375 203.266 13.2203 196.473 13.2203H188.174ZM188.174 8.88253H196.371C198.235 8.88253 199.129 8.1554 199.129 6.8567V6.77893C199.129 5.48023 198.261 4.72668 196.371 4.72668H188.174V8.88253Z" fill="#0A0A0A"/>
<path d="M6.64021 0.337524L18.7695 12.4932V0.337524H24.6431V19.6617H18.7695L5.87382 6.8567V19.6617H0.000976562V0.337524H6.64021Z" fill="#0A0A0A"/>
<path d="M37.5798 0.348839H27.5247V19.6889H47.6349V0.348839H37.5798ZM42.8267 4.72139V10.8147L33.3122 4.72139H42.8267ZM32.3321 15.3164V9.18982L41.898 15.3164H32.3321Z" fill="#0A0A0A"/>
</g>
<defs>
<clipPath id="clip0_1030_290">
<rect width="205.334" height="20" fill="white"/>
</clipPath>
</defs>
</svg>
