<svg width="350" height="34" viewBox="0 0 350 34" fill="none" xmlns="http://www.w3.org/2000/svg">
<g clip-path="url(#clip0_924_871)">
<path d="M99.888 33.4247L83.0869 0.573547H94.5469L106.442 24.7258L117.599 0.573547H128.104L112.476 33.4247H99.8867H99.888Z" fill="white"/>
<path d="M164.266 0.573547V8.03511H140.217V12.8923H163.701V20.3988H140.217V25.786H164.7V33.4247H130.231V0.573547H164.266Z" fill="white"/>
<path d="M179.198 0.573547V25.2559H201.642V33.4247H169.083V0.573547H179.198Z" fill="white"/>
<path d="M203.681 22.2538V21.7686H214.229C214.36 23.7119 215.488 26.9787 223.823 26.9787H224.43C232.939 26.9787 233.894 25.2561 233.894 23.4899C233.894 21.5914 232.895 20.3553 225.429 20.1782L219.872 20.046C207.804 19.693 204.115 15.5418 204.115 10.4203V10.0224C204.115 5.12157 207.023 -0.00128174 221.696 -0.00128174H224.692C239.973 -0.00128174 243.445 5.42963 243.445 10.3753V10.8169H232.94C232.767 9.53587 232.029 6.88652 223.607 6.88652H222.913C215.098 6.88652 214.535 8.3434 214.535 9.713C214.535 11.0826 215.36 12.4509 222.001 12.5395L227.427 12.6281C239.583 12.8925 244.488 15.8512 244.488 22.386V23.0047C244.488 28.4356 241.796 33.9987 225.561 33.9987H222.565C205.634 33.9987 203.681 26.5808 203.681 22.2538Z" fill="white"/>
<path d="M248.09 0.573547H258.205V12.5393H279.91V0.573547H290.025V33.4247H279.91V20.4873H258.205V33.4247H248.09V0.573547Z" fill="white"/>
<path d="M304.992 33.4247H294.877V0.573547H304.992V33.4247Z" fill="white"/>
<path d="M319.896 22.4743V33.4247H309.781V0.573547H334.004C345.595 0.573547 349.067 5.25355 349.067 11.2595V11.7011C349.067 17.5735 345.551 22.4743 334.004 22.4743H319.896ZM319.896 15.1H333.831C337 15.1 338.52 13.8639 338.52 11.6562V11.5239C338.52 9.31615 337.044 8.03511 333.831 8.03511H319.896V15.1Z" fill="white"/>
<path d="M11.2882 0.573547L31.9079 21.2382V0.573547H41.893V33.4247H31.9079L9.98531 11.6562V33.4247H0.00146484V0.573547H11.2882Z" fill="white"/>
<path d="M63.8857 0.592773H46.792V33.4709H80.9794V0.592773H63.8857ZM72.8054 8.0261V18.3848L56.6308 8.0261H72.8054ZM54.9647 26.0376V15.6224L71.2266 26.0376H54.9647Z" fill="white"/>
</g>
<defs>
<clipPath id="clip0_924_871">
<rect width="349.067" height="34" fill="white"/>
</clipPath>
</defs>
</svg>
