<?xml version="1.0" encoding="utf-8"?>
<svg xmlns="http://www.w3.org/2000/svg" width="12" height="13" viewBox="0 0 12 13" fill="none">
<path d="M4.49707 1.225V0.25H7.49707V1.225C10.1221 1.9 11.9971 4.225 11.9971 7C11.9971 10.3 9.29707 13 5.99707 13C2.69707 13 -0.00292969 10.3 -0.00292969 7C-0.00292969 4.225 1.87207 1.825 4.49707 1.225ZM5.99707 11.5C8.47207 11.5 10.4971 9.475 10.4971 7C10.4971 4.525 8.47207 2.5 5.99707 2.5C3.52207 2.5 1.49707 4.525 1.49707 7C1.49707 9.475 3.52207 11.5 5.99707 11.5ZM7.94707 4L8.99707 5.05L6.29707 7.75L5.24707 6.7L7.94707 4Z" fill="#E71524"/>
</svg>